# xmcd CD database file generated by OrangeCD 6.5
#
# Track frame offsets:
#	150
#	13515
#	29505
#	47647
#	63497
#	73740
#	94675
#	106032
#	118182
#	137835
#	150645
#	165342
#
# Disc length: 2364 seconds
#
# Revision: 2
# Processed by: cddbd v1.5.2PL0 Copyright (c) Steve Scherf et al.
# Submitted via: OrangeCD 6.5
#
DISCID=99093a0c
DTITLE=Willie Nelson - Original Album Classics: 5 Albums
DYEAR=2013
DGENRE=Country Pop
TTITLE0=Do Right Woman, Do Right Man
TTITLE1=Always On My Mind
TTITLE2=A Whiter Shade Of Pale
TTITLE3=Let It Be Me
TTITLE4=Staring Each Other Down
TTITLE5=Bridge Over Troubled Water
TTITLE6=Old Fords And A Natural Stone
TTITLE7=Permanently Lonely
TTITLE8=Last Thing I Needed First Thing This Morning
TTITLE9=The Party's Over
TTITLE10=The Man Who Owes Everyone
TTITLE11=I'm A Memory
EXTD=
EXTT0=
EXTT1=
EXTT2=
EXTT3=
EXTT4=
EXTT5=
EXTT6=
EXTT7=
EXTT8=
EXTT9=
EXTT10=
EXTT11=
PLAYORDER=
